<svg width="80" height="80" viewBox="0 0 80 80" fill="none" xmlns="http://www.w3.org/2000/svg">
<path d="M30.0022 15C31.9915 15 33.8993 14.2098 35.3059 12.8033C36.7125 11.3968 37.5028 9.48912 37.5028 7.5C37.5028 5.51088 36.7125 3.60322 35.3059 2.1967C33.8993 0.790176 31.9915 0 30.0022 0C28.0129 0 26.1051 0.790176 24.6985 2.1967C23.2919 3.60322 22.5017 5.51088 22.5017 7.5C22.5017 9.48912 23.2919 11.3968 24.6985 12.8033C26.1051 14.2098 28.0129 15 30.0022 15ZM18.8295 38.625C20.7671 37.8906 21.7516 35.7344 21.0172 33.7969C20.2827 31.8594 18.1263 30.875 16.1887 31.6094C6.73487 35.1719 0 44.2969 0 55C0 68.8125 11.1883 80 25.0018 80C34.565 80 42.8625 74.6406 47.066 66.7656C48.0348 64.9375 47.3472 62.6719 45.519 61.6875C43.6907 60.7031 41.4249 61.4063 40.4405 63.2344C37.5027 68.75 31.6898 72.5 25.0018 72.5C15.3292 72.5 7.50055 64.6719 7.50055 55C7.50055 47.5156 12.204 41.125 18.8295 38.625ZM40.5967 27.5L40.2998 25.9844C39.5967 22.5 36.5496 20 32.9868 20C28.2833 20 24.7518 24.2969 25.6738 28.9062L29.2834 46.9531C30.221 51.625 34.315 54.9844 39.0966 54.9844H39.8936C39.9561 54.9844 40.0186 54.9844 40.0967 54.9844H54.8009C55.8478 54.9844 56.7698 55.625 57.1448 56.6094L62.8171 71.75C63.7547 74.2656 66.5361 75.5937 69.0832 74.7344L76.5837 72.2344C79.2089 71.3594 80.6153 68.5312 79.7402 65.9062C78.8652 63.2812 76.0368 61.875 73.4116 62.75L70.4895 63.7187L66.5049 53.0937C64.6766 48.2187 60.0044 44.9844 54.8009 44.9844H44.097L42.5969 37.4844H52.5039C55.2697 37.4844 57.5042 35.25 57.5042 32.4844C57.5042 29.7187 55.2697 27.4844 52.5039 27.4844H40.5967V27.5Z" fill="#562A79"/>
</svg>
