<svg width="80" height="56" viewBox="0 0 80 56" fill="none" xmlns="http://www.w3.org/2000/svg">
<path d="M21.4092 8H27.9956V20H13.9103L17.7097 10.5125C18.3096 9 19.7719 8 21.4092 8ZM33.9947 20V8H44.1431C45.3554 8 46.5052 8.55 47.2676 9.5L55.6663 20H33.9947ZM66.0147 20.125L53.5166 4.5C51.242 1.65 47.7925 0 44.1431 0H21.4092C16.4974 0 12.0856 2.9875 10.2734 7.5375L5.07421 20.55C2.09967 21.725 0 24.6125 0 28V42C0 44.2125 1.78722 46 3.99938 46H8.16123C9.11108 51.675 14.0478 56 19.9969 56C25.9459 56 30.8827 51.675 31.8325 46H48.1675C49.1173 51.675 54.0541 56 60.0031 56C65.9522 56 70.8889 51.675 71.8388 46H76.0006C78.2128 46 80 44.2125 80 42V36C80 27.85 73.901 21.125 66.0272 20.125H66.0147ZM54.329 42C54.5836 41.247 54.9853 40.5521 55.5107 39.9557C56.036 39.3592 56.6747 38.8732 57.3895 38.5257C58.1043 38.1782 58.881 37.9763 59.6745 37.9315C60.468 37.8868 61.2625 38.0003 62.0118 38.2653C62.7611 38.5303 63.4503 38.9415 64.0393 39.4752C64.6284 40.0088 65.1055 40.6542 65.4431 41.3738C65.7806 42.0935 65.9718 42.873 66.0056 43.6672C66.0394 44.4613 65.915 45.2543 65.6397 46C65.3852 46.753 64.9835 47.4479 64.4581 48.0443C63.9327 48.6408 63.2941 49.1268 62.5793 49.4743C61.8645 49.8218 61.0877 50.0237 60.2942 50.0685C59.5007 50.1132 58.7062 49.9997 57.9569 49.7347C57.2076 49.4697 56.5185 49.0585 55.9294 48.5248C55.3404 47.9912 54.8632 47.3458 54.5257 46.6262C54.1881 45.9065 53.9969 45.127 53.9632 44.3328C53.9294 43.5387 54.0538 42.7457 54.329 42ZM19.9969 38C21.5879 38 23.1138 38.6321 24.2389 39.7574C25.3639 40.8826 25.9959 42.4087 25.9959 44C25.9959 45.5913 25.3639 47.1174 24.2389 48.2426C23.1138 49.3679 21.5879 50 19.9969 50C18.4058 50 16.8799 49.3679 15.7549 48.2426C14.6299 47.1174 13.9978 45.5913 13.9978 44C13.9978 42.4087 14.6299 40.8826 15.7549 39.7574C16.8799 38.6321 18.4058 38 19.9969 38Z" fill="#562A79"/>
</svg>
