<svg width="80" height="80" viewBox="0 0 80 80" fill="none" xmlns="http://www.w3.org/2000/svg">
<path d="M40 29.2733H0.015625C0.421875 17.7122 6.45312 7.57084 15.4688 1.51724C17.5469 0.128663 20.2812 0.846357 21.7031 2.89022L40 29.2733ZM60 24.2806C60 18.7731 64.4844 14.2953 70 14.2953H75C77.7656 14.2953 80 16.5264 80 19.288C80 22.0495 77.7656 24.2806 75 24.2806H70V34.2659C70 38.1976 69.0937 42.0982 67.3438 45.7334C65.5938 49.3687 63 52.6763 59.75 55.4535C56.5 58.2307 52.6406 60.4462 48.3906 61.9439C44.1406 63.4417 39.5937 64.2218 35 64.2218C30.4063 64.2218 25.8594 63.4417 21.6094 61.9439C17.3594 60.4462 13.5 58.2307 10.25 55.4535C7 52.6763 4.42188 49.3687 2.65625 45.7334C0.890625 42.0982 0 38.1976 0 34.2659H35H60V24.2806ZM12.5 64.2218C14.4891 64.2218 16.3968 65.0109 17.8033 66.4153C19.2098 67.8198 20 69.7246 20 71.7108C20 73.697 19.2098 75.6019 17.8033 77.0063C16.3968 78.4108 14.4891 79.1998 12.5 79.1998C10.5109 79.1998 8.60322 78.4108 7.1967 77.0063C5.79018 75.6019 5 73.697 5 71.7108C5 69.7246 5.79018 67.8198 7.1967 66.4153C8.60322 65.0109 10.5109 64.2218 12.5 64.2218ZM50 71.7108C50 69.7246 50.7902 67.8198 52.1967 66.4153C53.6032 65.0109 55.5109 64.2218 57.5 64.2218C59.4891 64.2218 61.3968 65.0109 62.8033 66.4153C64.2098 67.8198 65 69.7246 65 71.7108C65 73.697 64.2098 75.6019 62.8033 77.0063C61.3968 78.4108 59.4891 79.1998 57.5 79.1998C55.5109 79.1998 53.6032 78.4108 52.1967 77.0063C50.7902 75.6019 50 73.697 50 71.7108Z" fill="#562A79"/>
</svg>
