<svg width="80" height="54" viewBox="0 0 80 54" fill="none" xmlns="http://www.w3.org/2000/svg">
<path d="M15.5556 7.00016C15.5556 11.9029 11.5694 15.8891 6.66667 15.8891V38.1113C11.5694 38.1113 15.5556 42.0974 15.5556 47.0002H64.4444C64.4444 42.0974 68.4306 38.1113 73.3333 38.1113V15.8891C68.4306 15.8891 64.4444 11.9029 64.4444 7.00016H15.5556ZM0 9.22238C0 4.31961 3.98611 0.333496 8.88889 0.333496H71.1111C76.0139 0.333496 80 4.31961 80 9.22238V44.7779C80 49.6807 76.0139 53.6668 71.1111 53.6668H8.88889C3.98611 53.6668 0 49.6807 0 44.7779V9.22238ZM24.4444 27.0002C24.4444 24.9574 24.8468 22.9346 25.6285 21.0473C26.4103 19.16 27.5561 17.4452 29.0006 16.0007C30.445 14.5563 32.1599 13.4104 34.0471 12.6287C35.9344 11.847 37.9572 11.4446 40 11.4446C42.0428 11.4446 44.0656 11.847 45.9529 12.6287C47.8401 13.4104 49.555 14.5563 50.9994 16.0007C52.4439 17.4452 53.5897 19.16 54.3715 21.0473C55.1532 22.9346 55.5556 24.9574 55.5556 27.0002C55.5556 29.0429 55.1532 31.0657 54.3715 32.953C53.5897 34.8403 52.4439 36.5551 50.9994 37.9996C49.555 39.4441 47.8401 40.5899 45.9529 41.3716C44.0656 42.1534 42.0428 42.5557 40 42.5557C37.9572 42.5557 35.9344 42.1534 34.0471 41.3716C32.1599 40.5899 30.445 39.4441 29.0006 37.9996C27.5561 36.5551 26.4103 34.8403 25.6285 32.953C24.8468 31.0657 24.4444 29.0429 24.4444 27.0002ZM35.5556 20.3335C35.5556 21.5557 36.5556 22.5557 37.7778 22.5557V31.4446H36.6667C35.4444 31.4446 34.4444 32.4446 34.4444 33.6668C34.4444 34.889 35.4444 35.889 36.6667 35.889H40H43.3333C44.5556 35.889 45.5556 34.889 45.5556 33.6668C45.5556 32.4446 44.5556 31.4446 43.3333 31.4446H42.2222V20.3335C42.2222 19.1113 41.2222 18.1113 40 18.1113H37.7778C36.5556 18.1113 35.5556 19.1113 35.5556 20.3335Z" fill="#562A79"/>
</svg>
