<svg width="80" height="60" viewBox="0 0 80 60" fill="none" xmlns="http://www.w3.org/2000/svg">
<path d="M7.5 0.133301C3.35938 0.133301 0 3.47775 0 7.59997C0 9.94886 1.10938 12.1577 3 13.5733L37 38.96C38.7813 40.2822 41.2188 40.2822 43 38.96L77 13.5733C78.8906 12.1577 80 9.94886 80 7.59997C80 3.47775 76.6406 0.133301 72.5 0.133301H7.5ZM0 17.5555V49.9111C0 55.4022 4.48438 59.8666 10 59.8666H70C75.5156 59.8666 80 55.4022 80 49.9111V17.5555L46 42.9422C42.4375 45.6022 37.5625 45.6022 34 42.9422L0 17.5555Z" fill="#562A79"/>
</svg>
