<svg width="80" height="92" viewBox="0 0 80 92" fill="none" xmlns="http://www.w3.org/2000/svg">
<path d="M74.2857 0.54541C71.4286 0.54541 51.4286 6.22723 51.4286 31.7954V51.6818C51.4286 57.9495 56.5536 63.0454 62.8571 63.0454H68.5714V85.7727C68.5714 88.9154 71.125 91.4545 74.2857 91.4545C77.4464 91.4545 80 88.9154 80 85.7727V63.0454V43.159V6.22723C80 3.08447 77.4464 0.54541 74.2857 0.54541ZM11.4286 3.38632C11.4286 1.93035 10.3393 0.722967 8.875 0.563166C7.41071 0.403365 6.10714 1.36217 5.78571 2.76487L0.375 26.9659C0.125 28.0845 0 29.2208 0 30.3572C0 38.5071 6.26786 45.2009 14.2857 45.9289V85.7727C14.2857 88.9154 16.8393 91.4545 20 91.4545C23.1607 91.4545 25.7143 88.9154 25.7143 85.7727V45.9289C33.7321 45.2009 40 38.5071 40 30.3572C40 29.2208 39.875 28.0845 39.625 26.9659L34.2143 2.76487C33.8929 1.34442 32.5536 0.403365 31.1071 0.563166C29.6607 0.722967 28.5714 1.93035 28.5714 3.38632V27.2144C28.5714 28.1732 27.7857 28.9545 26.8214 28.9545C25.9107 28.9545 25.1607 28.262 25.0714 27.3565L22.8393 3.13774C22.7143 1.66402 21.4821 0.54541 20 0.54541C18.5179 0.54541 17.2857 1.66402 17.1607 3.13774L14.9464 27.3565C14.8571 28.262 14.1071 28.9545 13.1964 28.9545C12.2321 28.9545 11.4464 28.1732 11.4464 27.2144L11.4286 3.38632ZM20.0536 30.375H20H19.9464L20 30.2507L20.0536 30.375Z" fill="#562A79"/>
</svg>
