<svg width="80" height="80" viewBox="0 0 80 80" fill="none" xmlns="http://www.w3.org/2000/svg">
<path d="M38.6613 3.19572C36.6087 1.16046 33.8242 0 30.9326 0C24.8817 0 19.9911 4.89177 19.9911 10.944V11.8188C19.9911 13.9612 20.5801 16.05 21.6689 17.8889L25.0245 23.4769C25.2209 23.7983 25.2387 24.0303 25.203 24.2267C25.1673 24.441 25.0602 24.6731 24.846 24.8694C24.6319 25.0658 24.4177 25.1908 24.2035 25.2265C24.025 25.2622 23.7751 25.2444 23.4538 25.048L17.867 21.6916C16.0286 20.5847 13.9402 20.0134 11.7983 20.0134H10.9237C4.89067 19.9955 0 24.8873 0 30.9395C0 33.8317 1.1602 36.6168 3.195 38.6699L3.40919 38.8842C4.01606 39.4912 4.01606 40.491 3.40919 41.098L3.195 41.3122C1.1602 43.3653 0 46.1504 0 49.0426C0 55.0948 4.89067 59.9866 10.9415 59.9866H11.8162C13.9581 59.9866 16.0464 59.3975 17.8849 58.3084L23.4717 54.952C23.7929 54.7556 24.025 54.7378 24.2213 54.7735C24.4355 54.8092 24.6676 54.9163 24.8639 55.1305C25.0602 55.3448 25.1852 55.559 25.2209 55.7733C25.2566 55.9518 25.2387 56.2017 25.0424 56.5231L21.6867 62.1111C20.5801 63.95 20.0089 66.0388 20.0089 68.1812V69.056C20.0089 75.0904 24.8996 80 30.9505 80C33.842 80 36.6265 78.8395 38.6792 76.8043L38.8933 76.59C39.5002 75.983 40.4998 75.983 41.1066 76.59L41.3208 76.8043C43.3735 78.8574 46.158 80 49.0495 80C55.0825 80 59.9911 75.1082 59.9911 69.056V68.1812C59.9911 66.0388 59.4021 63.95 58.3133 62.1111L54.9576 56.5231C54.7613 56.2017 54.7434 55.9696 54.7791 55.7733C54.8148 55.559 54.9219 55.3269 55.1361 55.1305C55.3503 54.9342 55.5645 54.8092 55.7787 54.7735C55.9572 54.7378 56.2071 54.7556 56.5283 54.952L62.1151 58.3084C63.9536 59.4153 66.0419 59.9866 68.1838 59.9866H69.0585C75.0915 59.9866 80 55.0948 80 49.0426C80 46.1504 78.8398 43.3653 76.805 41.3122L76.5908 41.098C75.9839 40.491 75.9839 39.4912 76.5908 38.8842L76.805 38.6699C78.8576 36.6168 80 33.8317 80 30.9395C80 24.9052 75.1093 19.9955 69.0585 19.9955H68.1838C66.0419 19.9955 63.9536 20.5847 62.1151 21.6737L56.5283 25.0301C56.2071 25.2265 55.975 25.2444 55.7787 25.2087C55.5645 25.173 55.3324 25.0658 55.1361 24.8516C54.9398 24.6374 54.8148 24.4231 54.7791 24.2089C54.7434 24.0304 54.7613 23.7804 54.9576 23.459L58.3133 17.871C59.4199 16.0321 59.9911 13.9433 59.9911 11.8009V10.9261C59.9732 4.89176 55.0826 0 49.0317 0C46.1401 0 43.3556 1.16046 41.303 3.19572L41.0888 3.40995C40.4819 4.01696 39.4824 4.01696 38.8755 3.40995L38.6613 3.19572Z" fill="#562A79"/>
</svg>
